<?xml version="1.0" encoding="utf-8"?>
<!-- Generator: Adobe Illustrator 27.5.0, SVG Export Plug-In . SVG Version: 6.00 Build 0)  -->
<svg version="1.1" xmlns="http://www.w3.org/2000/svg" xmlns:xlink="http://www.w3.org/1999/xlink" x="0px" y="0px"
	 viewBox="0 0 650 500" style="enable-background:new 0 0 650 500;" xml:space="preserve">
<g id="BACKGROUND">
	<rect style="fill:#F5F5F5;" width="650" height="500"/>
</g>
<g id="OBJECTS">
	<g>
		<g>
			
				<rect x="248.203" y="79.387" style="fill:#FFFFFF;stroke:#012A58;stroke-linecap:round;stroke-linejoin:round;stroke-miterlimit:10;" width="157.124" height="157.124"/>
			<rect x="272.766" y="139.93" style="fill:#54B3E1;" width="16.524" height="16.524"/>
			<rect x="272.766" y="161.846" style="fill:#54B3E1;" width="16.524" height="16.524"/>
			<rect x="272.766" y="183.761" style="fill:#54B3E1;" width="16.524" height="16.524"/>
			<rect x="272.766" y="205.676" style="fill:#54B3E1;" width="16.524" height="16.524"/>
			<polyline style="fill:none;stroke:#012A58;stroke-linecap:round;stroke-linejoin:round;stroke-miterlimit:10;" points="
				277.323,146.947 282.401,152.024 290.951,139.232 			"/>
			<polyline style="fill:none;stroke:#012A58;stroke-linecap:round;stroke-linejoin:round;stroke-miterlimit:10;" points="
				277.323,168.6 282.401,173.677 290.951,160.885 			"/>
			<polyline style="fill:none;stroke:#012A58;stroke-linecap:round;stroke-linejoin:round;stroke-miterlimit:10;" points="
				277.323,190.252 282.401,195.33 290.951,182.537 			"/>
			<polyline style="fill:none;stroke:#012A58;stroke-linecap:round;stroke-linejoin:round;stroke-miterlimit:10;" points="
				277.323,211.905 282.401,216.982 290.951,204.19 			"/>
			
				<line style="fill:none;stroke:#012A58;stroke-linecap:round;stroke-linejoin:round;stroke-miterlimit:10;" x1="272.766" y1="95.437" x2="380.765" y2="95.437"/>
			
				<line style="fill:none;stroke:#012A58;stroke-linecap:round;stroke-linejoin:round;stroke-miterlimit:10;" x1="272.766" y1="103.902" x2="380.765" y2="103.902"/>
			
				<line style="fill:none;stroke:#012A58;stroke-linecap:round;stroke-linejoin:round;stroke-miterlimit:10;" x1="272.766" y1="120.834" x2="380.765" y2="120.834"/>
			
				<line style="fill:none;stroke:#012A58;stroke-linecap:round;stroke-linejoin:round;stroke-miterlimit:10;" x1="272.766" y1="112.368" x2="380.765" y2="112.368"/>
			
				<line style="fill:none;stroke:#012A58;stroke-linecap:round;stroke-linejoin:round;stroke-miterlimit:10;" x1="272.766" y1="129.299" x2="380.765" y2="129.299"/>
			<g>
				
					<line style="fill:none;stroke:#012A58;stroke-linecap:round;stroke-linejoin:round;stroke-miterlimit:10;" x1="297.047" y1="144.207" x2="380.765" y2="144.207"/>
				
					<line style="fill:none;stroke:#012A58;stroke-linecap:round;stroke-linejoin:round;stroke-miterlimit:10;" x1="297.047" y1="152.178" x2="380.765" y2="152.178"/>
			</g>
			<g>
				
					<line style="fill:none;stroke:#012A58;stroke-linecap:round;stroke-linejoin:round;stroke-miterlimit:10;" x1="297.047" y1="166.122" x2="380.765" y2="166.122"/>
				
					<line style="fill:none;stroke:#012A58;stroke-linecap:round;stroke-linejoin:round;stroke-miterlimit:10;" x1="297.047" y1="174.093" x2="380.765" y2="174.093"/>
			</g>
			<g>
				
					<line style="fill:none;stroke:#012A58;stroke-linecap:round;stroke-linejoin:round;stroke-miterlimit:10;" x1="297.047" y1="188.037" x2="380.765" y2="188.037"/>
				
					<line style="fill:none;stroke:#012A58;stroke-linecap:round;stroke-linejoin:round;stroke-miterlimit:10;" x1="297.047" y1="196.009" x2="380.765" y2="196.009"/>
			</g>
			<g>
				
					<line style="fill:none;stroke:#012A58;stroke-linecap:round;stroke-linejoin:round;stroke-miterlimit:10;" x1="297.047" y1="209.487" x2="380.765" y2="209.487"/>
				
					<line style="fill:none;stroke:#012A58;stroke-linecap:round;stroke-linejoin:round;stroke-miterlimit:10;" x1="297.047" y1="217.458" x2="380.765" y2="217.458"/>
			</g>
		</g>
		<text transform="matrix(1 0 0 1 273.2396 258.5153)" style="fill:#012A58; font-family:'Ubuntu-Bold'; font-size:12.0193px;">JOB DESCRIPTION</text>
	</g>
	<g>
		<g>
			<g>
				<path style="fill:#54B3E1;" d="M274.472,417.747L274.472,417.747c0,0,9.687-6.012,9.874-7.21l4.091-26.237l-17.084-2.664
					l-4.091,26.238C270.077,411.729,271.656,413.891,274.472,417.747z"/>
				<path style="fill:#012A58;" d="M286.286,398.095l-1.121,7.191c-12.192-2.866-15.963-9.856-15.963-9.856L286.286,398.095z"/>
				<path style="fill:#54B3E1;" d="M260.672,379.9c0,11.298,9.176,19.837,20.458,20.458c20.11,1.106,20.458-9.159,20.458-20.458
					c0-11.299-9.159-20.458-20.458-20.458C269.831,359.442,260.672,368.601,260.672,379.9z"/>
				<path style="fill:#54B3E1;" d="M288.984,390.311h-18.266c-5.525,0-10.046-4.521-10.046-10.046v-10.412
					c0-11.252,9.206-20.458,20.458-20.458h0c11.252,0,20.458,9.206,20.458,20.458v7.854
					C301.588,384.64,295.916,390.311,288.984,390.311z"/>
				<path style="fill:#012A58;" d="M275.848,343.487c0,0,25.044-4.242,25.392,22.644c-9.074,0-17.905-8.822-17.905-8.822
					s-6.839,21.237-13.848,39.409C239.564,384.57,252.042,343.487,275.848,343.487z"/>
				<path style="fill:#54B3E1;" d="M264.15,379.9c0,3.783,3.067,6.85,6.85,6.85c3.783,0,6.85-3.067,6.85-6.85
					c0-3.783-3.067-6.85-6.85-6.85C267.217,373.05,264.15,376.117,264.15,379.9z"/>
				<path style="fill:#54B3E1;" d="M301.588,374.699l-1.743,12.051c3.716,0,5.282-1.873,4.991-3.992
					C304.352,379.227,301.588,374.699,301.588,374.699z"/>
				<path style="fill:#012A58;" d="M254.857,442.429h38.454v-16.512c0-10.619-8.608-19.227-19.227-19.227l0,0
					c-10.619,0-19.227,8.608-19.227,19.227V442.429z"/>
			</g>
			<g>
				<path style="fill:#54B3E1;" d="M343.582,373.907l1.743,12.051c-3.716,0-5.282-1.873-4.991-3.992
					C340.818,378.435,343.582,373.907,343.582,373.907z"/>
				<g>
					<path style="fill:#012A58;" d="M395.168,360.695c-6.635-20.168-27.742-18.191-27.742-18.191s-7.342,4.606-10.797,18.191
						c-5.234,20.576-35.471,48.757,10.797,48.757C413.694,409.452,401.802,380.863,395.168,360.695z"/>
					<path style="fill:#54B3E1;" d="M370.698,416.956L370.698,416.956c0,0-9.687-6.012-9.874-7.21l-4.091-26.237l17.084-2.664
						l4.091,26.238C375.092,410.938,373.513,413.1,370.698,416.956z"/>
					<path style="fill:#012A58;" d="M358.884,397.303l1.121,7.191c12.192-2.866,15.963-9.856,15.963-9.856L358.884,397.303z"/>
					<path style="fill:#54B3E1;" d="M384.498,379.108c0,11.299-9.176,19.838-20.458,20.458c-20.11,1.106-20.458-9.159-20.458-20.458
						c0-11.299,9.159-20.458,20.458-20.458C375.338,358.65,384.498,367.809,384.498,379.108z"/>
					<path style="fill:#54B3E1;" d="M356.185,389.52h18.266c5.526,0,10.046-4.521,10.046-10.046v-10.412
						c0-11.252-9.206-20.458-20.458-20.458h0c-11.252,0-20.458,9.206-20.458,20.458v7.854
						C343.582,383.848,349.253,389.52,356.185,389.52z"/>
					<path style="fill:#012A58;" d="M369.322,342.695c0,0-25.044-4.242-25.392,22.644c9.074,0,17.905-8.822,17.905-8.822
						s7.618,23.118,14.627,41.29C406.384,385.659,393.127,342.695,369.322,342.695z"/>
					<path style="fill:#54B3E1;" d="M381.02,379.108c0,3.783-3.067,6.85-6.85,6.85c-3.783,0-6.85-3.067-6.85-6.85
						c0-3.783,3.067-6.85,6.85-6.85C377.953,372.258,381.02,375.325,381.02,379.108z"/>
					<path style="fill:#012A58;" d="M390.313,441.637h-38.454v-16.512c0-10.619,8.608-19.227,19.227-19.227h0
						c10.619,0,19.227,8.608,19.227,19.227V441.637z"/>
				</g>
			</g>
			<g>
				<path style="fill:#54B3E1;" d="M323.35,306.637h46.163c4.272,0,7.766,3.495,7.766,7.766v7.911c0,4.271-3.495,7.766-7.766,7.766
					h-1.442v6.953l-7.522-6.953h-37.2c-4.272,0-7.766-3.495-7.766-7.766v-7.911C315.584,310.132,319.078,306.637,323.35,306.637z"/>
				<path style="fill:#FFFFFF;stroke:#012A58;stroke-linecap:round;stroke-linejoin:round;stroke-miterlimit:10;" d="
					M330.166,296.147h-46.163c-4.272,0-7.766,3.495-7.766,7.766v7.911c0,4.271,3.495,7.766,7.766,7.766h1.442v6.953l7.522-6.953
					h37.2c4.272,0,7.766-3.495,7.766-7.766v-7.911C337.932,299.642,334.437,296.147,330.166,296.147z"/>
			</g>
		</g>
		<text transform="matrix(1 0 0 1 280.0003 464.4635)" style="fill:#012A58; font-family:'Ubuntu-Bold'; font-size:12.0193px;">JOB INTERVIEW</text>
	</g>
	<g>
		<g>
			<g>
				
					<rect x="515.748" y="109.651" style="fill:#FFFFFF;stroke:#012A58;stroke-linecap:round;stroke-linejoin:round;stroke-miterlimit:10;" width="82.718" height="126.71"/>
				<g>
					<path style="fill:#012A58;" d="M526.945,148.528h16.504v-3.47c0-3.069-2.488-5.556-5.556-5.556h-5.391
						c-3.069,0-5.556,2.488-5.556,5.556V148.528z"/>
					<path style="fill:#54B3E1;" d="M535.197,141.878L535.197,141.878c0.917-0.917,1.432-1.432,2.349-2.349v-7.216h-4.699v7.216
						C533.765,140.446,534.28,140.96,535.197,141.878z"/>
					<path style="fill:#012A58;" d="M535.197,121.646c-5.202,0-6.885,3.529-6.885,5.832c0,2.303,1.333,5.238,1.333,5.238h5.552
						h5.552c0,0,1.333-2.934,1.333-5.238C542.082,125.175,540.399,121.646,535.197,121.646z"/>
					<path style="fill:#012A58;" d="M532.848,136.106v1.978c3.393-0.259,4.699-1.978,4.699-1.978L532.848,136.106z"/>
					<path style="fill:#54B3E1;" d="M529.638,131.536c0,3.07,2.489,5.559,5.559,5.559c3.07,0,5.559-2.489,5.559-5.559
						c0-3.07-2.489-5.559-5.559-5.559C532.127,125.976,529.638,128.465,529.638,131.536z"/>
					<path style="fill:#54B3E1;" d="M537.332,134.365h-4.964c-1.501,0-2.73-1.229-2.73-2.73v-2.829c0-3.058,2.502-5.559,5.559-5.559
						l0,0c3.058,0,5.559,2.502,5.559,5.559v2.134C540.757,132.824,539.215,134.365,537.332,134.365z"/>
					<circle style="fill:#54B3E1;" cx="529.52" cy="131.536" r="1.861"/>
					<circle style="fill:#54B3E1;" cx="540.875" cy="131.536" r="1.861"/>
					<path style="fill:#012A58;" d="M528.333,127.719c0,0,5.429,1.251,9.003-2.875c2.034,3.563,4.725,3.053,4.725,3.053
						s0.734-6.864-6.864-6.864C527.599,121.033,528.333,127.719,528.333,127.719z"/>
					
						<rect x="523.527" y="118.679" style="fill:none;stroke:#012A58;stroke-linecap:round;stroke-linejoin:round;stroke-miterlimit:10;" width="23.037" height="29.849"/>
				</g>
				<g>
					
						<line style="fill:none;stroke:#012A58;stroke-linecap:round;stroke-linejoin:round;stroke-miterlimit:10;" x1="552.189" y1="122.161" x2="590.378" y2="122.161"/>
					
						<line style="fill:none;stroke:#012A58;stroke-linecap:round;stroke-linejoin:round;stroke-miterlimit:10;" x1="552.189" y1="129.459" x2="590.378" y2="129.459"/>
					
						<line style="fill:none;stroke:#012A58;stroke-linecap:round;stroke-linejoin:round;stroke-miterlimit:10;" x1="552.189" y1="136.756" x2="590.378" y2="136.756"/>
					
						<line style="fill:none;stroke:#012A58;stroke-linecap:round;stroke-linejoin:round;stroke-miterlimit:10;" x1="552.189" y1="144.054" x2="590.378" y2="144.054"/>
				</g>
				<g>
					
						<line style="fill:none;stroke:#012A58;stroke-linecap:round;stroke-linejoin:round;stroke-miterlimit:10;" x1="523.836" y1="160.431" x2="590.378" y2="160.431"/>
					
						<line style="fill:none;stroke:#012A58;stroke-linecap:round;stroke-linejoin:round;stroke-miterlimit:10;" x1="523.836" y1="166.601" x2="590.378" y2="166.601"/>
					
						<line style="fill:none;stroke:#012A58;stroke-linecap:round;stroke-linejoin:round;stroke-miterlimit:10;" x1="523.836" y1="172.771" x2="590.378" y2="172.771"/>
					
						<line style="fill:none;stroke:#012A58;stroke-linecap:round;stroke-linejoin:round;stroke-miterlimit:10;" x1="523.836" y1="178.942" x2="590.378" y2="178.942"/>
				</g>
				<g>
					
						<line style="fill:none;stroke:#012A58;stroke-linecap:round;stroke-linejoin:round;stroke-miterlimit:10;" x1="523.836" y1="218.466" x2="590.378" y2="218.466"/>
					
						<line style="fill:none;stroke:#012A58;stroke-linecap:round;stroke-linejoin:round;stroke-miterlimit:10;" x1="523.836" y1="224.636" x2="590.378" y2="224.636"/>
				</g>
				<g>
					
						<line style="fill:none;stroke:#012A58;stroke-linecap:round;stroke-linejoin:round;stroke-miterlimit:10;" x1="523.836" y1="190.948" x2="590.378" y2="190.948"/>
					
						<line style="fill:none;stroke:#012A58;stroke-linecap:round;stroke-linejoin:round;stroke-miterlimit:10;" x1="523.836" y1="197.118" x2="590.378" y2="197.118"/>
					
						<line style="fill:none;stroke:#012A58;stroke-linecap:round;stroke-linejoin:round;stroke-miterlimit:10;" x1="523.836" y1="203.289" x2="590.378" y2="203.289"/>
					
						<line style="fill:none;stroke:#012A58;stroke-linecap:round;stroke-linejoin:round;stroke-miterlimit:10;" x1="523.836" y1="209.459" x2="590.378" y2="209.459"/>
				</g>
			</g>
			<g>
				
					<rect x="441.451" y="95.878" style="fill:#FFFFFF;stroke:#012A58;stroke-linecap:round;stroke-linejoin:round;stroke-miterlimit:10;" width="82.718" height="126.71"/>
				<g>
					<path style="fill:#012A58;" d="M452.649,134.755h16.504v-3.47c0-3.069-2.488-5.556-5.556-5.556h-5.391
						c-3.069,0-5.556,2.488-5.556,5.556V134.755z"/>
					<path style="fill:#54B3E1;" d="M460.901,128.104L460.901,128.104c0.917-0.917,1.432-1.432,2.349-2.349v-7.216h-4.699v7.216
						C459.469,126.673,459.983,127.187,460.901,128.104z"/>
					<path style="fill:#012A58;" d="M460.901,107.873c-5.202,0-6.885,3.529-6.885,5.832c0,2.303,1.333,5.238,1.333,5.238h5.552
						h5.552c0,0,1.333-2.934,1.333-5.238C467.786,111.402,466.103,107.873,460.901,107.873z"/>
					<path style="fill:#012A58;" d="M458.551,122.333v1.978c3.393-0.259,4.699-1.978,4.699-1.978L458.551,122.333z"/>
					<path style="fill:#54B3E1;" d="M455.341,117.762c0,3.07,2.489,5.559,5.559,5.559c3.07,0,5.559-2.489,5.559-5.559
						c0-3.07-2.489-5.559-5.559-5.559C457.83,112.203,455.341,114.692,455.341,117.762z"/>
					<path style="fill:#54B3E1;" d="M463.035,120.592h-4.964c-1.501,0-2.73-1.229-2.73-2.73v-2.829c0-3.058,2.502-5.559,5.559-5.559
						l0,0c3.058,0,5.559,2.502,5.559,5.559v2.134C466.46,119.05,464.919,120.592,463.035,120.592z"/>
					<path style="fill:#54B3E1;" d="M453.362,117.762c0,1.028,0.833,1.861,1.861,1.861c1.028,0,1.861-0.833,1.861-1.861
						s-0.833-1.861-1.861-1.861C454.195,115.901,453.362,116.734,453.362,117.762z"/>
					<path style="fill:#54B3E1;" d="M464.717,117.762c0,1.028,0.833,1.861,1.861,1.861c1.028,0,1.861-0.833,1.861-1.861
						s-0.833-1.861-1.861-1.861C465.55,115.901,464.717,116.734,464.717,117.762z"/>
					<path style="fill:#012A58;" d="M454.037,113.945c0,0,5.428,1.251,9.003-2.875c2.034,3.563,4.725,3.053,4.725,3.053
						s0.734-6.864-6.864-6.864C453.303,107.26,454.037,113.945,454.037,113.945z"/>
					
						<rect x="449.23" y="104.905" style="fill:none;stroke:#012A58;stroke-linecap:round;stroke-linejoin:round;stroke-miterlimit:10;" width="23.037" height="29.849"/>
				</g>
				<g>
					
						<line style="fill:none;stroke:#012A58;stroke-linecap:round;stroke-linejoin:round;stroke-miterlimit:10;" x1="477.892" y1="108.388" x2="516.081" y2="108.388"/>
					
						<line style="fill:none;stroke:#012A58;stroke-linecap:round;stroke-linejoin:round;stroke-miterlimit:10;" x1="477.892" y1="115.686" x2="516.081" y2="115.686"/>
					
						<line style="fill:none;stroke:#012A58;stroke-linecap:round;stroke-linejoin:round;stroke-miterlimit:10;" x1="477.892" y1="122.983" x2="516.081" y2="122.983"/>
					
						<line style="fill:none;stroke:#012A58;stroke-linecap:round;stroke-linejoin:round;stroke-miterlimit:10;" x1="477.892" y1="130.281" x2="516.081" y2="130.281"/>
				</g>
				<g>
					
						<line style="fill:none;stroke:#012A58;stroke-linecap:round;stroke-linejoin:round;stroke-miterlimit:10;" x1="449.539" y1="143.658" x2="516.081" y2="143.658"/>
					
						<line style="fill:none;stroke:#012A58;stroke-linecap:round;stroke-linejoin:round;stroke-miterlimit:10;" x1="449.539" y1="149.828" x2="516.081" y2="149.828"/>
					
						<line style="fill:none;stroke:#012A58;stroke-linecap:round;stroke-linejoin:round;stroke-miterlimit:10;" x1="449.539" y1="155.998" x2="516.081" y2="155.998"/>
					
						<line style="fill:none;stroke:#012A58;stroke-linecap:round;stroke-linejoin:round;stroke-miterlimit:10;" x1="449.539" y1="162.169" x2="516.081" y2="162.169"/>
				</g>
				<g>
					
						<line style="fill:none;stroke:#012A58;stroke-linecap:round;stroke-linejoin:round;stroke-miterlimit:10;" x1="449.539" y1="204.692" x2="516.081" y2="204.692"/>
					
						<line style="fill:none;stroke:#012A58;stroke-linecap:round;stroke-linejoin:round;stroke-miterlimit:10;" x1="449.539" y1="210.863" x2="516.081" y2="210.863"/>
				</g>
				<g>
					
						<line style="fill:none;stroke:#012A58;stroke-linecap:round;stroke-linejoin:round;stroke-miterlimit:10;" x1="449.539" y1="174.175" x2="516.081" y2="174.175"/>
					
						<line style="fill:none;stroke:#012A58;stroke-linecap:round;stroke-linejoin:round;stroke-miterlimit:10;" x1="449.539" y1="180.345" x2="516.081" y2="180.345"/>
					
						<line style="fill:none;stroke:#012A58;stroke-linecap:round;stroke-linejoin:round;stroke-miterlimit:10;" x1="449.539" y1="186.516" x2="516.081" y2="186.516"/>
					
						<line style="fill:none;stroke:#012A58;stroke-linecap:round;stroke-linejoin:round;stroke-miterlimit:10;" x1="449.539" y1="192.686" x2="516.081" y2="192.686"/>
				</g>
			</g>
			<g>
				
					<rect x="478.296" y="79.387" style="fill:#FFFFFF;stroke:#012A58;stroke-linecap:round;stroke-linejoin:round;stroke-miterlimit:10;" width="82.718" height="126.71"/>
				<g>
					<path style="fill:#012A58;" d="M505.284,94.454c-1.803-5.48-7.539-4.943-7.539-4.943s-5.736-0.537-7.539,4.943
						c-1.803,5.481-5.034,13.25,7.539,13.25C510.318,107.704,507.087,99.935,505.284,94.454z"/>
					<path style="fill:#012A58;" d="M489.493,117.006h16.504v-3.47c0-3.069-2.488-5.556-5.556-5.556h-5.391
						c-3.069,0-5.556,2.488-5.556,5.556V117.006z"/>
					<path style="fill:#54B3E1;" d="M497.745,110.355L497.745,110.355c0.918-0.917,1.432-1.432,2.349-2.349v-7.216h-4.699v7.216
						C496.313,108.924,496.828,109.438,497.745,110.355z"/>
					<path style="fill:#012A58;" d="M495.396,104.584v1.978c3.393-0.259,4.699-1.978,4.699-1.978L495.396,104.584z"/>
					<path style="fill:#54B3E1;" d="M492.186,100.013c0,3.07,2.489,5.559,5.559,5.559c3.07,0,5.559-2.489,5.559-5.559
						c0-3.07-2.489-5.559-5.559-5.559C494.675,94.454,492.186,96.943,492.186,100.013z"/>
					<path style="fill:#54B3E1;" d="M499.879,102.843h-4.964c-1.502,0-2.73-1.229-2.73-2.73v-2.829c0-3.058,2.502-5.559,5.559-5.559
						l0,0c3.058,0,5.559,2.502,5.559,5.559v2.134C503.304,101.301,501.763,102.843,499.879,102.843z"/>
					<circle style="fill:#54B3E1;" cx="492.068" cy="100.013" r="1.861"/>
					<circle style="fill:#54B3E1;" cx="503.422" cy="100.013" r="1.861"/>
					<path style="fill:#012A58;" d="M490.881,96.196c0,0,5.428,1.251,9.003-2.875c2.034,3.563,4.725,3.053,4.725,3.053
						s0.734-6.864-6.864-6.864C490.147,89.511,490.881,96.196,490.881,96.196z"/>
					
						<rect x="486.227" y="87.157" style="fill:none;stroke:#012A58;stroke-linecap:round;stroke-linejoin:round;stroke-miterlimit:10;" width="23.037" height="29.849"/>
				</g>
				<g>
					
						<line style="fill:none;stroke:#012A58;stroke-linecap:round;stroke-linejoin:round;stroke-miterlimit:10;" x1="514.58" y1="91.896" x2="552.769" y2="91.896"/>
					
						<line style="fill:none;stroke:#012A58;stroke-linecap:round;stroke-linejoin:round;stroke-miterlimit:10;" x1="514.58" y1="99.194" x2="552.769" y2="99.194"/>
					
						<line style="fill:none;stroke:#012A58;stroke-linecap:round;stroke-linejoin:round;stroke-miterlimit:10;" x1="514.58" y1="106.492" x2="552.769" y2="106.492"/>
					
						<line style="fill:none;stroke:#012A58;stroke-linecap:round;stroke-linejoin:round;stroke-miterlimit:10;" x1="514.58" y1="113.789" x2="552.769" y2="113.789"/>
				</g>
				<g>
					
						<line style="fill:none;stroke:#012A58;stroke-linecap:round;stroke-linejoin:round;stroke-miterlimit:10;" x1="486.227" y1="127.166" x2="552.769" y2="127.166"/>
					
						<line style="fill:none;stroke:#012A58;stroke-linecap:round;stroke-linejoin:round;stroke-miterlimit:10;" x1="486.227" y1="133.336" x2="552.769" y2="133.336"/>
					
						<line style="fill:none;stroke:#012A58;stroke-linecap:round;stroke-linejoin:round;stroke-miterlimit:10;" x1="486.227" y1="139.507" x2="552.769" y2="139.507"/>
					
						<line style="fill:none;stroke:#012A58;stroke-linecap:round;stroke-linejoin:round;stroke-miterlimit:10;" x1="486.227" y1="145.677" x2="552.769" y2="145.677"/>
				</g>
				<g>
					
						<line style="fill:none;stroke:#012A58;stroke-linecap:round;stroke-linejoin:round;stroke-miterlimit:10;" x1="486.227" y1="188.201" x2="552.769" y2="188.201"/>
					
						<line style="fill:none;stroke:#012A58;stroke-linecap:round;stroke-linejoin:round;stroke-miterlimit:10;" x1="486.227" y1="194.371" x2="552.769" y2="194.371"/>
				</g>
				<g>
					
						<line style="fill:none;stroke:#012A58;stroke-linecap:round;stroke-linejoin:round;stroke-miterlimit:10;" x1="486.227" y1="157.683" x2="552.769" y2="157.683"/>
					
						<line style="fill:none;stroke:#012A58;stroke-linecap:round;stroke-linejoin:round;stroke-miterlimit:10;" x1="486.227" y1="163.854" x2="552.769" y2="163.854"/>
					
						<line style="fill:none;stroke:#012A58;stroke-linecap:round;stroke-linejoin:round;stroke-miterlimit:10;" x1="486.227" y1="170.024" x2="552.769" y2="170.024"/>
					
						<line style="fill:none;stroke:#012A58;stroke-linecap:round;stroke-linejoin:round;stroke-miterlimit:10;" x1="486.227" y1="176.194" x2="552.769" y2="176.194"/>
				</g>
			</g>
			<g>
				<g>
					<path style="fill:#012A58;" d="M604.198,226.428L604.198,226.428c2.389-2.389,2.389-6.299,0-8.688l-40.544-40.544
						c-2.389-2.389-6.299-2.389-8.688,0l0,0c-2.389,2.389-2.389,6.299,0,8.688l40.544,40.544
						C597.899,228.817,601.809,228.817,604.198,226.428z"/>
					<circle style="fill:#54B3E1;" cx="551.62" cy="172.967" r="28.099"/>
				</g>
				
					<circle style="fill:#FFFFFF;stroke:#012A58;stroke-linecap:round;stroke-linejoin:round;stroke-miterlimit:10;" cx="550.737" cy="172.967" r="28.099"/>
				
					<circle style="fill:#54B3E1;stroke:#012A58;stroke-linecap:round;stroke-linejoin:round;stroke-miterlimit:10;" cx="550.737" cy="172.967" r="21.467"/>
			</g>
		</g>
		<text transform="matrix(1 0 0 1 475.2116 258.5153)" style="fill:#012A58; font-family:'Ubuntu-Bold'; font-size:12.0193px;">TALENT SEARCH</text>
	</g>
	<g>
		<g>
			
				<rect x="445.158" y="285.305" style="fill:#FFFFFF;stroke:#012A58;stroke-linecap:round;stroke-linejoin:round;stroke-miterlimit:10;" width="157.124" height="157.124"/>
			<g>
				<path style="fill:#012A58;" d="M523.138,358.384c-6.635-20.168-27.742-18.191-27.742-18.191s-21.107-1.977-27.742,18.191
					c-6.635,20.168-18.526,48.757,27.742,48.757S529.772,378.552,523.138,358.384z"/>
				<path style="fill:#012A58;" d="M465.029,442.429h60.733v-13.827c0-11.292-9.154-20.447-20.447-20.447h-19.84
					c-11.293,0-20.447,9.154-20.447,20.447V442.429z"/>
				<path style="fill:#54B3E1;" d="M495.396,416.9L495.396,416.9c3.376-3.376,5.269-5.269,8.645-8.645V381.7H486.75v26.554
					C490.127,411.631,492.02,413.524,495.396,416.9z"/>
				<path style="fill:#012A58;" d="M486.75,395.662v7.278c12.488-0.953,17.291-7.279,17.291-7.279L486.75,395.662z"/>
				
					<ellipse transform="matrix(0.3991 -0.9169 0.9169 0.3991 -49.6793 681.8793)" style="fill:#54B3E1;" cx="495.396" cy="378.842" rx="20.458" ry="20.458"/>
				<path style="fill:#54B3E1;" d="M503.25,389.254h-18.266c-5.526,0-10.046-4.521-10.046-10.046v-10.412
					c0-11.252,9.206-20.458,20.458-20.458l0,0c11.252,0,20.458,9.206,20.458,20.458v7.854
					C515.854,383.582,510.182,389.254,503.25,389.254z"/>
				<path style="fill:#54B3E1;" d="M467.654,378.842c0,3.783,3.067,6.85,6.85,6.85s6.85-3.067,6.85-6.85
					c0-3.783-3.067-6.85-6.85-6.85S467.654,375.059,467.654,378.842z"/>
				<path style="fill:#54B3E1;" d="M509.438,378.842c0,3.783,3.067,6.85,6.85,6.85c3.783,0,6.85-3.067,6.85-6.85
					c0-3.783-3.067-6.85-6.85-6.85C512.505,371.992,509.438,375.059,509.438,378.842z"/>
				<path style="fill:#012A58;" d="M470.137,364.796c0,0,19.976,4.605,33.131-10.579c7.486,13.112,17.388,11.235,17.388,11.235
					s2.7-25.259-25.259-25.259S470.137,364.796,470.137,364.796z"/>
			</g>
			<g>
				<polyline style="fill:none;stroke:#012A58;stroke-linecap:round;stroke-linejoin:round;stroke-miterlimit:10;" points="
					538.253,392.702 555.212,409.661 583.774,366.932 				"/>
			</g>
			<g>
				
					<line style="fill:none;stroke:#012A58;stroke-linecap:round;stroke-linejoin:round;stroke-miterlimit:10;" x1="472.028" y1="303.982" x2="575.412" y2="303.982"/>
				
					<line style="fill:none;stroke:#012A58;stroke-linecap:round;stroke-linejoin:round;stroke-miterlimit:10;" x1="472.028" y1="312.149" x2="575.412" y2="312.149"/>
				
					<line style="fill:none;stroke:#012A58;stroke-linecap:round;stroke-linejoin:round;stroke-miterlimit:10;" x1="472.028" y1="320.316" x2="575.412" y2="320.316"/>
				
					<line style="fill:none;stroke:#012A58;stroke-linecap:round;stroke-linejoin:round;stroke-miterlimit:10;" x1="472.028" y1="328.483" x2="575.412" y2="328.483"/>
			</g>
		</g>
		<text transform="matrix(1 0 0 1 451.072 464.4635)" style="fill:#012A58; font-family:'Ubuntu-Bold'; font-size:12.0193px;">OFFER OF EMPLOYMENT</text>
	</g>
	<g>
		<g>
			<g>
				<defs>
					<rect id="XMLID_2_" x="50.293" y="285.305" width="157.124" height="157.124"/>
				</defs>
				<use xlink:href="#XMLID_2_"  style="overflow:visible;fill:#FFFFFF;"/>
				<clipPath id="XMLID_00000147936623498638020340000006883960229116079036_">
					<use xlink:href="#XMLID_2_"  style="overflow:visible;"/>
				</clipPath>
				<g style="clip-path:url(#XMLID_00000147936623498638020340000006883960229116079036_);">
					<g>
						<g>
							<path style="fill:#012A58;" d="M65.963,315.193h19.129v-4.022c0-3.557-2.883-6.44-6.44-6.44h-6.249
								c-3.557,0-6.44,2.883-6.44,6.44V315.193z"/>
							<path style="fill:#54B3E1;" d="M75.527,307.485L75.527,307.485c1.063-1.063,1.66-1.66,2.723-2.723v-8.364h-5.446v8.364
								C73.868,305.826,74.464,306.422,75.527,307.485z"/>
							<path style="fill:#012A58;" d="M75.527,284.036c-6.029,0-7.98,4.09-7.98,6.759c0,2.669,1.545,6.071,1.545,6.071h6.434h6.435
								c0,0,1.545-3.401,1.545-6.071C83.507,288.127,81.557,284.036,75.527,284.036z"/>
							<path style="fill:#012A58;" d="M72.804,300.796v2.292c3.933-0.3,5.446-2.293,5.446-2.293L72.804,300.796z"/>
							<circle style="fill:#54B3E1;" cx="75.527" cy="295.499" r="6.443"/>
							<path style="fill:#54B3E1;" d="M78.001,298.778h-5.753c-1.74,0-3.164-1.424-3.164-3.164v-3.279
								c0-3.544,2.9-6.444,6.443-6.444l0,0c3.544,0,6.443,2.9,6.443,6.444v2.474C81.971,296.991,80.185,298.778,78.001,298.778z"/>
							<circle style="fill:#54B3E1;" cx="68.947" cy="295.499" r="2.157"/>
							<circle style="fill:#54B3E1;" cx="82.108" cy="295.499" r="2.157"/>
							<path style="fill:#012A58;" d="M67.572,291.074c0,0,3.967,1.45,8.111-3.332c2.358,4.13,7.801,3.539,7.801,3.539
								s0.85-7.956-7.956-7.956S67.572,291.074,67.572,291.074z"/>
							
								<rect x="62.001" y="280.597" style="fill:none;stroke:#012A58;stroke-linecap:round;stroke-linejoin:round;stroke-miterlimit:10;" width="26.7" height="34.596"/>
						</g>
						<g>
							
								<line style="fill:none;stroke:#012A58;stroke-linecap:round;stroke-linejoin:round;stroke-miterlimit:10;" x1="105.326" y1="293.782" x2="191.723" y2="293.782"/>
							
								<line style="fill:none;stroke:#012A58;stroke-linecap:round;stroke-linejoin:round;stroke-miterlimit:10;" x1="105.326" y1="302.008" x2="191.723" y2="302.008"/>
						</g>
					</g>
					<g>
						<g>
							<path style="fill:#012A58;" d="M84.265,332.467c-2.09-6.352-8.738-5.729-8.738-5.729s-6.648-0.623-8.738,5.729
								c-2.09,6.352-5.835,15.357,8.738,15.357S86.355,338.819,84.265,332.467z"/>
							<path style="fill:#012A58;" d="M65.963,358.605h19.129v-4.022c0-3.557-2.883-6.44-6.44-6.44h-6.249
								c-3.557,0-6.44,2.883-6.44,6.44V358.605z"/>
							<path style="fill:#54B3E1;" d="M75.527,350.898L75.527,350.898c1.063-1.063,1.66-1.66,2.723-2.723v-8.364h-5.446v8.364
								C73.868,349.238,74.464,349.834,75.527,350.898z"/>
							<path style="fill:#012A58;" d="M72.804,344.208v2.292c3.933-0.3,5.446-2.293,5.446-2.293L72.804,344.208z"/>
							<circle style="fill:#54B3E1;" cx="75.527" cy="338.911" r="6.443"/>
							<path style="fill:#54B3E1;" d="M78.001,342.19h-5.753c-1.74,0-3.164-1.424-3.164-3.164v-3.279c0-3.544,2.9-6.443,6.443-6.443
								l0,0c3.544,0,6.443,2.899,6.443,6.443v2.474C81.971,340.404,80.185,342.19,78.001,342.19z"/>
							<circle style="fill:#54B3E1;" cx="68.947" cy="338.911" r="2.157"/>
							<circle style="fill:#54B3E1;" cx="82.108" cy="338.911" r="2.157"/>
							<path style="fill:#012A58;" d="M67.572,334.487c0,0,6.292,1.45,10.435-3.332c2.358,4.13,5.476,3.539,5.476,3.539
								s0.85-7.956-7.956-7.956S67.572,334.487,67.572,334.487z"/>
							
								<rect x="62.177" y="324.009" style="fill:none;stroke:#012A58;stroke-linecap:round;stroke-linejoin:round;stroke-miterlimit:10;" width="26.7" height="34.596"/>
						</g>
						<g>
							
								<line style="fill:none;stroke:#012A58;stroke-linecap:round;stroke-linejoin:round;stroke-miterlimit:10;" x1="105.326" y1="337.194" x2="191.723" y2="337.194"/>
							
								<line style="fill:none;stroke:#012A58;stroke-linecap:round;stroke-linejoin:round;stroke-miterlimit:10;" x1="105.326" y1="345.42" x2="191.723" y2="345.42"/>
						</g>
					</g>
					<g>
						<g>
							<path style="fill:#012A58;" d="M84.265,419.292c-2.09-6.352-8.738-5.73-8.738-5.73s-6.648-0.623-8.738,5.73
								c-2.09,6.352-5.835,19.302,8.738,19.302S86.355,425.644,84.265,419.292z"/>
							<path style="fill:#012A58;" d="M65.963,445.43h19.129v-4.022c0-3.557-2.883-6.44-6.44-6.44h-6.249
								c-3.557,0-6.44,2.883-6.44,6.44V445.43z"/>
							<path style="fill:#54B3E1;" d="M75.527,437.722L75.527,437.722c1.063-1.063,1.66-1.66,2.723-2.723v-8.364h-5.446v8.364
								C73.868,436.063,74.464,436.659,75.527,437.722z"/>
							<path style="fill:#012A58;" d="M72.804,431.033v2.292c3.933-0.3,5.446-2.293,5.446-2.293L72.804,431.033z"/>
							<path style="fill:#54B3E1;" d="M69.084,425.735c0,3.559,2.885,6.443,6.443,6.443c3.559,0,6.443-2.885,6.443-6.443
								c0-3.559-2.885-6.443-6.443-6.443C71.969,419.292,69.084,422.177,69.084,425.735z"/>
							<path style="fill:#54B3E1;" d="M78.001,429.015h-5.753c-1.74,0-3.164-1.424-3.164-3.164v-3.279
								c0-3.544,2.9-6.443,6.443-6.443l0,0c3.544,0,6.443,2.9,6.443,6.443v2.474C81.971,427.228,80.185,429.015,78.001,429.015z"/>
							<path style="fill:#54B3E1;" d="M66.79,425.735c0,1.191,0.966,2.157,2.157,2.157c1.192,0,2.157-0.966,2.157-2.157
								c0-1.192-0.966-2.158-2.157-2.158C67.756,423.578,66.79,424.544,66.79,425.735z"/>
							<path style="fill:#54B3E1;" d="M79.95,425.735c0,1.191,0.966,2.157,2.157,2.157c1.192,0,2.157-0.966,2.157-2.157
								c0-1.192-0.966-2.158-2.157-2.158C80.916,423.578,79.95,424.544,79.95,425.735z"/>
							<path style="fill:#012A58;" d="M67.572,421.311c0,0,6.292,1.45,10.435-3.332c2.358,4.13,5.476,3.539,5.476,3.539
								s0.85-7.956-7.956-7.956S67.572,421.311,67.572,421.311z"/>
							
								<rect x="62.177" y="410.834" style="fill:none;stroke:#012A58;stroke-linecap:round;stroke-linejoin:round;stroke-miterlimit:10;" width="26.7" height="34.596"/>
						</g>
						<g>
							
								<line style="fill:none;stroke:#012A58;stroke-linecap:round;stroke-linejoin:round;stroke-miterlimit:10;" x1="105.326" y1="424.019" x2="191.723" y2="424.019"/>
							
								<line style="fill:none;stroke:#012A58;stroke-linecap:round;stroke-linejoin:round;stroke-miterlimit:10;" x1="105.326" y1="432.245" x2="191.723" y2="432.245"/>
						</g>
					</g>
					<g>
						<g>
							<path style="fill:#012A58;" d="M65.963,402.017h19.129v-4.022c0-3.557-2.883-6.44-6.44-6.44h-6.249
								c-3.557,0-6.44,2.883-6.44,6.44V402.017z"/>
							<path style="fill:#54B3E1;" d="M75.527,394.31L75.527,394.31c1.063-1.063,1.66-1.66,2.723-2.723v-8.364h-5.446v8.364
								C73.868,392.65,74.464,393.246,75.527,394.31z"/>
							<path style="fill:#012A58;" d="M75.527,370.861c-6.029,0-7.98,4.09-7.98,6.759c0,2.669,1.545,6.07,1.545,6.07h6.434h6.435
								c0,0,1.545-3.401,1.545-6.07C83.507,374.951,81.557,370.861,75.527,370.861z"/>
							<path style="fill:#012A58;" d="M72.804,387.621v2.292c3.933-0.3,5.446-2.293,5.446-2.293L72.804,387.621z"/>
							<circle style="fill:#54B3E1;" cx="75.527" cy="382.323" r="6.443"/>
							<path style="fill:#54B3E1;" d="M78.001,385.602h-5.753c-1.74,0-3.164-1.424-3.164-3.164v-3.279
								c0-3.544,2.9-6.443,6.443-6.443l0,0c3.544,0,6.443,2.9,6.443,6.443v2.474C81.971,383.816,80.185,385.602,78.001,385.602z"/>
							<path style="fill:#54B3E1;" d="M66.79,382.323c0,1.191,0.966,2.157,2.157,2.157c1.192,0,2.157-0.966,2.157-2.157
								s-0.966-2.158-2.157-2.158C67.756,380.166,66.79,381.132,66.79,382.323z"/>
							<path style="fill:#54B3E1;" d="M79.95,382.323c0,1.191,0.966,2.157,2.157,2.157c1.192,0,2.157-0.966,2.157-2.157
								s-0.966-2.158-2.157-2.158C80.916,380.166,79.95,381.132,79.95,382.323z"/>
							<path style="fill:#012A58;" d="M67.572,377.899c0,0,6.292,1.45,10.435-3.332c2.358,4.13,5.476,3.539,5.476,3.539
								s0.85-7.956-7.956-7.956S67.572,377.899,67.572,377.899z"/>
							
								<rect x="62.001" y="367.421" style="fill:none;stroke:#012A58;stroke-linecap:round;stroke-linejoin:round;stroke-miterlimit:10;" width="26.7" height="34.596"/>
						</g>
						<g>
							
								<line style="fill:none;stroke:#012A58;stroke-linecap:round;stroke-linejoin:round;stroke-miterlimit:10;" x1="105.326" y1="380.606" x2="191.723" y2="380.606"/>
							
								<line style="fill:none;stroke:#012A58;stroke-linecap:round;stroke-linejoin:round;stroke-miterlimit:10;" x1="105.326" y1="388.833" x2="191.723" y2="388.833"/>
						</g>
					</g>
					<path style="fill:none;stroke:#54B3E1;stroke-linecap:round;stroke-linejoin:round;stroke-miterlimit:10;" d="M183.859,358.696
						H113.07c-9.725,0-17.608-7.884-17.608-17.608l0,0c0-9.725,7.884-17.608,17.608-17.608h70.789
						c9.725,0,17.608,7.883,17.608,17.608l0,0C201.467,350.812,193.584,358.696,183.859,358.696z"/>
					<path style="fill:none;stroke:#54B3E1;stroke-linecap:round;stroke-linejoin:round;stroke-miterlimit:10;" d="M183.95,402.328
						H113.16c-9.725,0-17.608-7.883-17.608-17.608l0,0c0-9.725,7.884-17.608,17.608-17.608h70.789
						c9.725,0,17.608,7.884,17.608,17.608l0,0C201.558,394.444,193.674,402.328,183.95,402.328z"/>
				</g>
				
					<use xlink:href="#XMLID_2_"  style="overflow:visible;fill:none;stroke:#012A58;stroke-linecap:round;stroke-linejoin:round;stroke-miterlimit:10;"/>
			</g>
		</g>
		<text transform="matrix(1 0 0 1 85.3696 464.4635)" style="fill:#012A58; font-family:'Ubuntu-Bold'; font-size:12.0193px;">SHORTLISTING</text>
	</g>
	<g>
		<text transform="matrix(1 0 0 1 47.0522 258.5153)" style="fill:#012A58; font-family:'Ubuntu-Bold'; font-size:12.0193px;">IDENTIFYING HIRING NEEDS</text>
		<g>
			<g>
				<g>
					
						<rect x="48.896" y="79.387" style="fill:#FFFFFF;stroke:#012A58;stroke-linecap:round;stroke-linejoin:round;stroke-miterlimit:10;" width="48.986" height="63.472"/>
					<path style="fill:#012A58;" d="M56.165,142.859H91.26v-7.379c0-6.525-5.29-11.815-11.815-11.815H67.981
						c-6.525,0-11.815,5.29-11.815,11.815V142.859z"/>
					<path style="fill:#54B3E1;" d="M73.713,128.718L73.713,128.718c1.951-1.951,3.045-3.045,4.996-4.996v-15.345h-9.992v15.345
						C70.668,125.673,71.762,126.767,73.713,128.718z"/>
					<path style="fill:#012A58;" d="M73.713,85.697c-11.062,0-14.64,7.504-14.64,12.401c0,4.897,2.835,11.137,2.835,11.137h11.805
						h11.805c0,0,2.835-6.24,2.835-11.137C88.353,93.201,84.775,85.697,73.713,85.697z"/>
					<path style="fill:#012A58;" d="M68.717,116.445v4.205c7.216-0.551,9.992-4.206,9.992-4.206L68.717,116.445z"/>
					
						<ellipse transform="matrix(0.6245 -0.781 0.781 0.6245 -55.6769 97.6514)" style="fill:#54B3E1;" cx="73.713" cy="106.726" rx="11.822" ry="11.822"/>
					<path style="fill:#54B3E1;" d="M78.252,112.743H67.696c-3.193,0-5.805-2.612-5.805-5.805v-6.016
						c0-6.502,5.32-11.822,11.822-11.822l0,0c6.502,0,11.822,5.32,11.822,11.822v4.539
						C85.534,109.465,82.257,112.743,78.252,112.743z"/>
					<path style="fill:#54B3E1;" d="M57.682,106.726c0,2.186,1.772,3.958,3.958,3.958c2.186,0,3.958-1.772,3.958-3.958
						c0-2.186-1.772-3.958-3.958-3.958C59.454,102.768,57.682,104.54,57.682,106.726z"/>
					<path style="fill:#54B3E1;" d="M81.827,106.726c0,2.186,1.772,3.958,3.958,3.958c2.186,0,3.958-1.772,3.958-3.958
						c0-2.186-1.772-3.958-3.958-3.958C83.599,102.768,81.827,104.54,81.827,106.726z"/>
					<path style="fill:#012A58;" d="M59.117,98.609c0,0,6.995,2.661,14.596-6.113c4.326,7.577,14.596,6.492,14.596,6.492
						s1.56-14.596-14.596-14.596S59.117,98.609,59.117,98.609z"/>
				</g>
				
					<line style="fill:none;stroke:#012A58;stroke-linecap:round;stroke-linejoin:round;stroke-miterlimit:10;" x1="55.842" y1="147.854" x2="90.937" y2="147.854"/>
				
					<line style="fill:none;stroke:#012A58;stroke-linecap:round;stroke-linejoin:round;stroke-miterlimit:10;" x1="55.842" y1="153.188" x2="90.937" y2="153.188"/>
			</g>
			<g>
				<g>
					
						<rect x="102.966" y="79.387" style="fill:#FFFFFF;stroke:#012A58;stroke-linecap:round;stroke-linejoin:round;stroke-miterlimit:10;" width="48.986" height="63.472"/>
					<path style="fill:#012A58;" d="M143.49,94.904c-3.834-11.654-16.031-10.512-16.031-10.512s-12.197-1.142-16.031,10.512
						s-10.705,28.174,16.031,28.174C154.195,123.079,147.324,106.558,143.49,94.904z"/>
					<path style="fill:#012A58;" d="M109.911,142.859h35.095v-7.379c0-6.525-5.29-11.815-11.815-11.815h-11.464
						c-6.525,0-11.815,5.29-11.815,11.815V142.859z"/>
					<path style="fill:#54B3E1;" d="M127.459,128.718L127.459,128.718c1.951-1.951,3.045-3.045,4.996-4.996v-15.345h-9.992v15.345
						C124.414,125.673,125.508,126.767,127.459,128.718z"/>
					<path style="fill:#012A58;" d="M122.463,116.445v4.205c7.216-0.551,9.992-4.206,9.992-4.206L122.463,116.445z"/>
					
						<ellipse transform="matrix(0.6534 -0.757 0.757 0.6534 -36.617 133.472)" style="fill:#54B3E1;" cx="127.459" cy="106.726" rx="11.822" ry="11.822"/>
					<path style="fill:#54B3E1;" d="M131.997,112.743h-10.555c-3.193,0-5.805-2.612-5.805-5.805v-6.016
						c0-6.502,5.32-11.822,11.822-11.822h0c6.502,0,11.822,5.32,11.822,11.822v4.539
						C139.28,109.465,136.003,112.743,131.997,112.743z"/>
					<path style="fill:#54B3E1;" d="M111.428,106.726c0,2.186,1.772,3.958,3.958,3.958c2.186,0,3.958-1.772,3.958-3.958
						c0-2.186-1.772-3.958-3.958-3.958C113.2,102.768,111.428,104.54,111.428,106.726z"/>
					<path style="fill:#54B3E1;" d="M135.573,106.726c0,2.186,1.772,3.958,3.958,3.958c2.186,0,3.958-1.772,3.958-3.958
						c0-2.186-1.772-3.958-3.958-3.958C137.345,102.768,135.573,104.54,135.573,106.726z"/>
					<path style="fill:#012A58;" d="M112.863,98.609c0,0,11.543,2.661,19.145-6.113c4.326,7.577,10.047,6.492,10.047,6.492
						s1.56-14.596-14.596-14.596C111.302,84.393,112.863,98.609,112.863,98.609z"/>
				</g>
				
					<line style="fill:none;stroke:#012A58;stroke-linecap:round;stroke-linejoin:round;stroke-miterlimit:10;" x1="109.911" y1="147.854" x2="145.006" y2="147.854"/>
				
					<line style="fill:none;stroke:#012A58;stroke-linecap:round;stroke-linejoin:round;stroke-miterlimit:10;" x1="109.911" y1="153.188" x2="145.006" y2="153.188"/>
			</g>
			<g>
				<g>
					
						<rect x="157.035" y="79.387" style="fill:#FFFFFF;stroke:#012A58;stroke-linecap:round;stroke-linejoin:round;stroke-miterlimit:10;" width="48.986" height="63.472"/>
					<path style="fill:#012A58;" d="M164.304,142.859h35.095v-7.379c0-6.525-5.29-11.815-11.815-11.815h-11.464
						c-6.525,0-11.815,5.29-11.815,11.815V142.859z"/>
					<path style="fill:#54B3E1;" d="M181.851,128.718L181.851,128.718c1.951-1.951,3.045-3.045,4.996-4.996v-15.345h-9.992v15.345
						C178.806,125.673,179.9,126.767,181.851,128.718z"/>
					<path style="fill:#012A58;" d="M181.851,85.697c-11.062,0-14.64,7.504-14.64,12.401c0,4.897,2.835,11.137,2.835,11.137h11.805
						h11.805c0,0,2.835-6.24,2.835-11.137C196.492,93.201,192.913,85.697,181.851,85.697z"/>
					<path style="fill:#012A58;" d="M176.855,116.445v4.205c7.216-0.551,9.992-4.206,9.992-4.206L176.855,116.445z"/>
					
						<ellipse transform="matrix(0.6534 -0.757 0.757 0.6534 -17.7664 174.6461)" style="fill:#54B3E1;" cx="181.851" cy="106.726" rx="11.822" ry="11.822"/>
					<path style="fill:#54B3E1;" d="M186.39,112.743h-10.555c-3.193,0-5.805-2.612-5.805-5.805v-6.016
						c0-6.502,5.32-11.822,11.822-11.822l0,0c6.502,0,11.822,5.32,11.822,11.822v4.539
						C193.673,109.465,190.395,112.743,186.39,112.743z"/>
					<path style="fill:#54B3E1;" d="M165.82,106.726c0,2.186,1.772,3.958,3.958,3.958s3.958-1.772,3.958-3.958
						c0-2.186-1.772-3.958-3.958-3.958S165.82,104.54,165.82,106.726z"/>
					<path style="fill:#54B3E1;" d="M189.966,106.726c0,2.186,1.772,3.958,3.958,3.958c2.186,0,3.958-1.772,3.958-3.958
						c0-2.186-1.772-3.958-3.958-3.958C191.738,102.768,189.966,104.54,189.966,106.726z"/>
					<path style="fill:#012A58;" d="M167.255,98.609c0,0,11.543,2.661,19.145-6.113c4.326,7.577,10.047,6.492,10.047,6.492
						s1.56-14.596-14.596-14.596C165.695,84.393,167.255,98.609,167.255,98.609z"/>
				</g>
				
					<line style="fill:none;stroke:#012A58;stroke-linecap:round;stroke-linejoin:round;stroke-miterlimit:10;" x1="163.98" y1="147.854" x2="199.075" y2="147.854"/>
				
					<line style="fill:none;stroke:#012A58;stroke-linecap:round;stroke-linejoin:round;stroke-miterlimit:10;" x1="163.98" y1="153.188" x2="199.075" y2="153.188"/>
			</g>
			<g>
				<g>
					
						<rect x="48.896" y="162.71" style="fill:#FFFFFF;stroke:#012A58;stroke-linecap:round;stroke-linejoin:round;stroke-miterlimit:10;" width="48.986" height="63.472"/>
					<path style="fill:#012A58;" d="M89.42,178.228c-3.834-11.654-16.031-10.512-16.031-10.512s-12.197-1.142-16.031,10.512
						c-3.834,11.654-10.705,34.626,16.031,34.626S93.254,189.882,89.42,178.228z"/>
					<path style="fill:#012A58;" d="M55.842,226.182h35.095v-7.379c0-6.525-5.29-11.815-11.815-11.815H67.657
						c-6.525,0-11.815,5.29-11.815,11.815V226.182z"/>
					<path style="fill:#54B3E1;" d="M73.39,212.041L73.39,212.041c1.951-1.951,3.045-3.045,4.996-4.996v-15.345h-9.992v15.345
						C70.345,208.997,71.439,210.09,73.39,212.041z"/>
					<path style="fill:#012A58;" d="M68.394,199.769v4.205c7.216-0.551,9.992-4.206,9.992-4.206L68.394,199.769z"/>
					
						<ellipse transform="matrix(0.9865 -0.1636 0.1636 0.9865 -30.1018 14.5662)" style="fill:#54B3E1;" cx="73.39" cy="190.05" rx="11.822" ry="11.822"/>
					<path style="fill:#54B3E1;" d="M77.928,196.066H67.373c-3.193,0-5.805-2.612-5.805-5.805v-6.016
						c0-6.502,5.32-11.822,11.822-11.822l0,0c6.502,0,11.822,5.32,11.822,11.822v4.539
						C85.211,192.789,81.934,196.066,77.928,196.066z"/>
					<path style="fill:#54B3E1;" d="M57.359,190.05c0,2.186,1.772,3.958,3.958,3.958c2.186,0,3.958-1.772,3.958-3.958
						c0-2.186-1.772-3.958-3.958-3.958C59.131,186.091,57.359,187.863,57.359,190.05z"/>
					<path style="fill:#54B3E1;" d="M81.504,190.05c0,2.186,1.772,3.958,3.958,3.958c2.186,0,3.958-1.772,3.958-3.958
						c0-2.186-1.772-3.958-3.958-3.958C83.276,186.091,81.504,187.863,81.504,190.05z"/>
					<path style="fill:#012A58;" d="M58.793,181.933c0,0,11.543,2.661,19.145-6.113c4.326,7.577,10.047,6.492,10.047,6.492
						s1.56-14.596-14.596-14.596C57.233,167.716,58.793,181.933,58.793,181.933z"/>
				</g>
				
					<line style="fill:none;stroke:#012A58;stroke-linecap:round;stroke-linejoin:round;stroke-miterlimit:10;" x1="55.842" y1="231.178" x2="90.937" y2="231.178"/>
				
					<line style="fill:none;stroke:#012A58;stroke-linecap:round;stroke-linejoin:round;stroke-miterlimit:10;" x1="55.842" y1="236.511" x2="90.937" y2="236.511"/>
			</g>
			<g>
				<g>
					
						<rect x="102.966" y="162.71" style="fill:#FFFFFF;stroke:#012A58;stroke-linecap:round;stroke-linejoin:round;stroke-miterlimit:10;" width="48.986" height="63.472"/>
					<path style="fill:#012A58;" d="M110.234,226.182h35.095v-7.379c0-6.525-5.29-11.815-11.815-11.815H122.05
						c-6.525,0-11.815,5.29-11.815,11.815V226.182z"/>
					<path style="fill:#54B3E1;" d="M127.782,212.041L127.782,212.041c1.951-1.951,3.045-3.045,4.996-4.996v-15.345h-9.991v15.345
						C124.737,208.997,125.831,210.09,127.782,212.041z"/>
					<path style="fill:#012A58;" d="M127.782,169.021c-11.062,0-14.64,7.504-14.64,12.401s2.835,11.137,2.835,11.137h11.805h11.805
						c0,0,2.835-6.24,2.835-11.137S138.844,169.021,127.782,169.021z"/>
					<path style="fill:#012A58;" d="M122.786,199.769v4.205c7.216-0.551,9.991-4.206,9.991-4.206L122.786,199.769z"/>
					
						<ellipse transform="matrix(0.9732 -0.2298 0.2298 0.9732 -40.2463 34.4424)" style="fill:#54B3E1;" cx="127.782" cy="190.05" rx="11.822" ry="11.822"/>
					<path style="fill:#54B3E1;" d="M132.321,196.066h-10.555c-3.193,0-5.805-2.612-5.805-5.805v-6.016
						c0-6.502,5.32-11.822,11.822-11.822l0,0c6.502,0,11.822,5.32,11.822,11.822v4.539
						C139.604,192.789,136.326,196.066,132.321,196.066z"/>
					<path style="fill:#54B3E1;" d="M111.751,190.05c0,2.186,1.772,3.958,3.958,3.958c2.186,0,3.958-1.772,3.958-3.958
						c0-2.186-1.772-3.958-3.958-3.958C113.523,186.091,111.751,187.863,111.751,190.05z"/>
					<path style="fill:#54B3E1;" d="M135.896,190.05c0,2.186,1.772,3.958,3.958,3.958c2.186,0,3.958-1.772,3.958-3.958
						c0-2.186-1.772-3.958-3.958-3.958C137.669,186.091,135.896,187.863,135.896,190.05z"/>
					<path style="fill:#012A58;" d="M113.186,181.933c0,0,11.543,2.661,19.145-6.113c4.326,7.577,10.048,6.492,10.048,6.492
						s1.56-14.596-14.596-14.596C111.625,167.716,113.186,181.933,113.186,181.933z"/>
				</g>
				
					<line style="fill:none;stroke:#012A58;stroke-linecap:round;stroke-linejoin:round;stroke-miterlimit:10;" x1="109.911" y1="231.178" x2="145.006" y2="231.178"/>
				
					<line style="fill:none;stroke:#012A58;stroke-linecap:round;stroke-linejoin:round;stroke-miterlimit:10;" x1="109.911" y1="236.511" x2="145.006" y2="236.511"/>
			</g>
			<g>
				<g>
					
						<rect x="157.035" y="162.71" style="fill:#FFFFFF;stroke:#012A58;stroke-linecap:round;stroke-linejoin:round;stroke-miterlimit:10;" width="48.986" height="63.472"/>
					<path style="fill:#012A58;" d="M197.559,178.228c-3.834-11.654-16.031-10.512-16.031-10.512s-12.197-1.142-16.031,10.512
						c-3.834,11.654-10.705,21.701,16.031,21.701S201.393,189.882,197.559,178.228z"/>
					<path style="fill:#012A58;" d="M163.98,226.182h35.095v-7.379c0-6.525-5.29-11.815-11.815-11.815h-11.464
						c-6.525,0-11.815,5.29-11.815,11.815V226.182z"/>
					<path style="fill:#54B3E1;" d="M181.528,212.041L181.528,212.041c1.951-1.951,3.045-3.045,4.996-4.996v-15.345h-9.991v15.345
						C178.483,208.997,179.577,210.09,181.528,212.041z"/>
					<path style="fill:#012A58;" d="M176.532,199.769v4.205c7.216-0.551,9.991-4.206,9.991-4.206L176.532,199.769z"/>
					
						<ellipse transform="matrix(0.9867 -0.1626 0.1626 0.9867 -28.4831 32.0414)" style="fill:#54B3E1;" cx="181.528" cy="190.05" rx="11.822" ry="11.822"/>
					<path style="fill:#54B3E1;" d="M186.067,196.066h-10.555c-3.193,0-5.805-2.612-5.805-5.805v-6.016
						c0-6.502,5.32-11.822,11.822-11.822l0,0c6.502,0,11.822,5.32,11.822,11.822v4.539
						C193.35,192.789,190.072,196.066,186.067,196.066z"/>
					<path style="fill:#54B3E1;" d="M165.497,190.05c0,2.186,1.772,3.958,3.958,3.958s3.958-1.772,3.958-3.958
						c0-2.186-1.772-3.958-3.958-3.958S165.497,187.863,165.497,190.05z"/>
					<path style="fill:#54B3E1;" d="M189.642,190.05c0,2.186,1.772,3.958,3.958,3.958c2.186,0,3.958-1.772,3.958-3.958
						c0-2.186-1.772-3.958-3.958-3.958C191.415,186.091,189.642,187.863,189.642,190.05z"/>
					<path style="fill:#012A58;" d="M166.932,181.933c0,0,11.543,2.661,19.145-6.113c4.326,7.577,10.048,6.492,10.048,6.492
						s1.56-14.596-14.596-14.596S166.932,181.933,166.932,181.933z"/>
				</g>
				
					<line style="fill:none;stroke:#012A58;stroke-linecap:round;stroke-linejoin:round;stroke-miterlimit:10;" x1="163.98" y1="231.178" x2="199.075" y2="231.178"/>
				
					<line style="fill:none;stroke:#012A58;stroke-linecap:round;stroke-linejoin:round;stroke-miterlimit:10;" x1="163.98" y1="236.511" x2="199.075" y2="236.511"/>
			</g>
			<g>
				<g>
					<g>
						<path style="fill:#FFFFFF;stroke:#012A58;stroke-linecap:round;stroke-linejoin:round;stroke-miterlimit:10;" d="
							M210.945,209.992L210.945,209.992c2.389-2.389,2.389-6.299,0-8.688l-40.544-40.544c-2.389-2.389-6.299-2.389-8.688,0h0
							c-2.389,2.389-2.389,6.299,0,8.688l40.544,40.544C204.646,212.381,208.556,212.381,210.945,209.992z"/>
						<circle style="fill:#FFFFFF;" cx="158.367" cy="156.531" r="28.099"/>
					</g>
					<g>
						<path style="fill:#FFFFFF;stroke:#012A58;stroke-linecap:round;stroke-linejoin:round;stroke-miterlimit:10;" d="
							M157.483,186.678c-7.723,0-15.447-2.94-21.327-8.82c-5.697-5.696-8.835-13.271-8.835-21.327c0-8.056,3.138-15.63,8.835-21.327
							c5.696-5.697,13.27-8.835,21.327-8.835c8.057,0,15.631,3.138,21.327,8.835c11.76,11.759,11.76,30.894,0,42.654
							C172.931,183.738,165.207,186.678,157.483,186.678z M157.483,130.493c-6.954,0-13.493,2.708-18.411,7.626
							c-4.918,4.918-7.627,11.457-7.627,18.411c0,6.955,2.709,13.494,7.627,18.412c10.153,10.152,26.67,10.152,36.823,0
							c10.152-10.152,10.152-26.672,0-36.823C170.977,133.201,164.439,130.493,157.483,130.493z"/>
					</g>
				</g>
				<g>
					<path style="fill:#012A58;" d="M157.593,148.662c-0.8,0-1.554,0.1-2.265,0.299c-0.711,0.2-1.499,0.522-2.364,0.966
						l-1.399-3.763c0.866-0.555,1.887-0.982,3.064-1.282c1.177-0.299,2.331-0.45,3.463-0.45c1.421,0,2.593,0.189,3.514,0.566
						c0.921,0.378,1.648,0.855,2.181,1.432c0.533,0.577,0.904,1.21,1.116,1.898c0.21,0.688,0.316,1.343,0.316,1.965
						c0,0.622-0.095,1.194-0.283,1.715c-0.189,0.521-0.428,1.005-0.716,1.449s-0.621,0.866-0.999,1.266
						c-0.378,0.399-0.744,0.777-1.099,1.132c-0.266,0.266-0.544,0.549-0.833,0.85c-0.288,0.299-0.549,0.616-0.782,0.949
						c-0.233,0.332-0.428,0.682-0.583,1.048c-0.156,0.367-0.233,0.739-0.233,1.116c0,0.089,0,0.222,0,0.4
						c0,0.178,0.011,0.333,0.034,0.467h-4.396c-0.045-0.222-0.073-0.472-0.084-0.75c-0.011-0.277-0.017-0.516-0.017-0.716
						c0-0.621,0.078-1.182,0.233-1.681c0.155-0.5,0.361-0.966,0.616-1.399s0.549-0.838,0.883-1.216
						c0.333-0.377,0.677-0.744,1.032-1.099c0.511-0.511,0.977-1.016,1.399-1.515c0.421-0.5,0.632-1.071,0.632-1.715
						c0-0.533-0.205-0.988-0.615-1.366C158.997,148.85,158.392,148.662,157.593,148.662z M160.69,165.413
						c0,0.977-0.316,1.731-0.948,2.265c-0.633,0.533-1.349,0.799-2.148,0.799c-0.8,0-1.516-0.266-2.148-0.799
						c-0.633-0.533-0.949-1.287-0.949-2.265c0-0.977,0.316-1.732,0.949-2.265c0.632-0.533,1.348-0.8,2.148-0.8
						c0.799,0,1.515,0.266,2.148,0.8C160.374,163.681,160.69,164.436,160.69,165.413z"/>
				</g>
			</g>
		</g>
	</g>
	<g>
		<g>
			<rect x="264.656" y="28.956" style="fill:#012A58;" width="120.689" height="24.448"/>
		</g>
		<text transform="matrix(1 0 0 1 273.6772 45.072)" style="fill:#F5F5F5; font-family:'Ubuntu-Bold'; font-size:12.4422px;">HIRING PROCESS</text>
	</g>
</g>
</svg>
